<?xml version="1.0" encoding="UTF-8"?>
<!DOCTYPE svg PUBLIC "-//W3C//DTD SVG 1.1//EN" "http://www.w3.org/Graphics/SVG/1.1/DTD/svg11.dtd">
<!-- Creator: CorelDRAW (Versão OEM) -->
<svg xmlns="http://www.w3.org/2000/svg" xml:space="preserve" width="242.323mm" height="51.2224mm" version="1.1" style="shape-rendering:geometricPrecision; text-rendering:geometricPrecision; image-rendering:optimizeQuality; fill-rule:evenodd; clip-rule:evenodd"
viewBox="0 0 798.7 168.83"
 xmlns:xlink="http://www.w3.org/1999/xlink"
 xmlns:xodm="http://www.corel.com/coreldraw/odm/2003">
 <defs>
  <style type="text/css">
   <![CDATA[
    .fil2 {fill:#6E786F}
    .fil1 {fill:#667067}
    .fil0 {fill:#6E786F;fill-rule:nonzero}
   ]]>
  </style>
 </defs>
 <g id="Camada_x0020_1">
  <metadata id="CorelCorpID_0Corel-Layer"/>
  <g id="_1858719229296">
   <path class="fil0" d="M342.77 68.58c0.4,0.42 0.99,0.63 1.53,0.37 0.35,-0.16 0.7,-0.37 0.98,-0.65 0.15,-0.14 0.25,-0.32 0.4,-0.45 0.31,-0.26 0.69,-0.45 1.02,-0.69 0.24,-0.15 0.47,-0.32 0.72,-0.46 0.08,-0.05 0.17,-0.09 0.25,-0.14 0.12,-0.06 0.16,-0.06 0.18,-0.21 0.06,-0.36 0.04,-0.76 0.03,-1.13 -0.01,-0.34 -0.1,-0.65 -0.29,-0.93 -0.23,-0.35 -0.67,-0.52 -1.01,-0.76 -0.64,-0.44 -1.37,-0.82 -2.13,-0.43 -0.17,0.08 -0.32,0.2 -0.46,0.33 -0.04,0.05 -0.1,0.09 -0.13,0.14 -0.04,0.09 -0.01,0.15 -0.11,0.2 -0.13,0.07 -0.22,0 -0.31,0.14 -0.04,0.07 -0.05,0.14 -0.1,0.21 -0.06,0.08 -0.13,0.16 -0.19,0.25 -0.25,0.42 -0.28,0.89 -0.39,1.34 -0.05,0.2 -0.11,0.44 -0.21,0.62 -0.1,0.18 -0.26,0.31 -0.34,0.51 -0.04,0.09 -0.04,0.21 -0.05,0.32 0,-0.01 -0.01,-0.02 -0.01,-0.02 0,0.01 0,0.03 0,0.06 -0.02,0.24 -0.02,0.5 -0,0.72 0.02,0.35 0.31,0.53 0.61,0.66z"/>
   <path class="fil0" d="M492.12 68.58c0.4,0.42 0.99,0.63 1.53,0.37 0.35,-0.16 0.69,-0.37 0.98,-0.65 0.14,-0.14 0.24,-0.32 0.39,-0.45 0.31,-0.26 0.69,-0.45 1.03,-0.69 0.24,-0.15 0.47,-0.32 0.72,-0.46 0.08,-0.05 0.17,-0.09 0.25,-0.14 0.12,-0.06 0.15,-0.06 0.18,-0.21 0.06,-0.36 0.04,-0.76 0.03,-1.13 -0.01,-0.34 -0.09,-0.65 -0.28,-0.93 -0.23,-0.36 -0.67,-0.52 -1.01,-0.76 -0.64,-0.44 -1.37,-0.82 -2.13,-0.43 -0.17,0.08 -0.32,0.2 -0.46,0.33 -0.04,0.05 -0.1,0.09 -0.13,0.14 -0.04,0.09 -0.01,0.15 -0.11,0.2 -0.13,0.07 -0.23,0 -0.31,0.14 -0.04,0.07 -0.05,0.14 -0.1,0.21 -0.06,0.08 -0.13,0.16 -0.18,0.25 -0.24,0.42 -0.28,0.89 -0.39,1.34 -0.05,0.21 -0.1,0.44 -0.21,0.62 -0.1,0.18 -0.26,0.31 -0.34,0.51 -0.04,0.09 -0.04,0.21 -0.06,0.32 -0,-0.01 -0.01,-0.02 -0.01,-0.02 0,0.01 0,0.03 0,0.06 -0.02,0.24 -0.02,0.5 0,0.72 0.02,0.35 0.31,0.53 0.61,0.66z"/>
   <path class="fil0" d="M541.03 143.22c-0.07,1.06 -0.14,2.12 -0.22,3.18 -0.01,0.15 -0.02,0.29 -0.03,0.44 -0.24,3.23 -0.54,6.45 -1.02,9.65 -0.27,1.84 -0.61,3.85 -1.54,5.49 -0.36,0.64 -0.86,1.22 -1.59,1.44 -0.72,0.23 -0.88,0.01 -1.09,-0.63 -0.25,-0.77 -0.28,-1.58 -0.22,-2.41 0,-0.07 0.01,-0.14 0.02,-0.21 0.08,-0.81 0.24,-1.62 0.38,-2.37 0.35,-1.83 0.83,-3.64 1.34,-5.43 1.13,-3.94 2.5,-7.82 3.95,-11.65l0 2.5zm-267.88 -86.29c6.52,-12.48 14.91,-23.96 24.48,-34.28 4.51,-4.85 9.33,-9.65 14.89,-13.31 2.19,-1.43 4.55,-2.84 7.1,-3.54 0.82,-0.23 1.69,-0.39 2.54,-0.33 1.55,0.1 2.01,0.59 2.16,1.93 -1.34,6.72 -5.38,13.01 -9.08,18.66 -4.18,6.38 -8.88,12.41 -13.93,18.12 -5.07,5.74 -10.5,11.19 -16.34,16.14 -2.81,2.39 -5.69,4.7 -8.72,6.8 -1.56,1.08 -3.15,2.1 -4.78,3.06 -1.52,0.89 -3.07,1.47 -4.6,2.32 1.52,-5.41 3.71,-10.58 6.28,-15.57zm525.51 19.08c-0.03,-0.3 -0.1,-0.62 -0.21,-0.94 -0.45,-0.63 -0.75,-1.07 -1.61,-1.04 -0.34,0.01 -1.25,0.55 -1.25,0.51 0,-0.05 -0.03,-0.4 -0.01,-0.41 -11.99,7.81 -24.82,13.58 -38.89,16.42 -6.15,1.23 -12.49,1.96 -18.76,1.43 -4.9,-0.43 -13.18,-1.78 -14.12,-7.7 0.05,-0.6 0.13,-1.37 0.27,-2.15 0.19,-0.89 0.47,-1.79 0.81,-2.7 0.11,-0.2 0.23,-0.37 0.37,-0.51 0.76,-0.81 4.01,-1.42 5.11,-1.88 2.77,-1.19 5.61,-2.61 7.83,-4.68 1.57,-1.48 3.18,-3.79 2.6,-6.09 -1.72,-6.87 -11.43,-0.49 -13.99,2.21 -1.89,1.99 -3,4.91 -5.47,6.1 -3.12,1.51 -6.27,2.99 -9.45,4.35 -6.85,2.93 -13.95,5.41 -21.24,7.03 -5.59,1.24 -13.21,2.67 -18.45,-0.47 -1.84,-1.1 -3.02,-2.8 -3.59,-4.86 -0.84,-3.03 0.09,-5.84 0.22,-8.84 0,0.01 0,0.02 0.01,0.03l0 -0.1c0,-0.02 0,-0.03 0,-0.05 0.02,-0.45 0.03,-1.13 -0.08,-1.51 -1.06,-3.86 -4.52,-2.26 -6.71,-0.62 -6.02,4.54 -11.69,9.52 -17.74,14.02 -3.95,2.94 -14.89,11.43 -18.82,4.79 0.42,-2.14 1.21,-4.25 2.25,-6.16 0.89,-1.63 2.96,-3.16 3.48,-4.86 0.15,-0.49 0.17,-1.59 0,-2.08 -1.78,-5.13 -7.23,2.7 -8.72,4.06 -3.71,3.36 -7.93,6.14 -12.22,8.69 -9.56,5.67 -19.89,10.06 -30.14,14.3 -8.97,3.7 -18.54,6.77 -26.9,11.77 4.35,-9.14 9.08,-18.07 14.07,-26.87 2.12,-3.73 4.22,-7.5 6.52,-11.13 1.16,-1.84 3.14,-3.95 2.82,-6.32 -0.37,-2.8 -2.71,-2.37 -4.65,-1.16 -3.56,2.24 -6.87,4.87 -10.17,7.48 -1.83,1.45 -18.79,14.87 -20.61,11.01 0.17,-0.91 0.65,-1.76 1.31,-2.56 0.01,-0.02 0.03,-0.03 0.05,-0.06 1.81,-2.17 4.88,-3.95 6.59,-5.27 1.23,-0.95 2.54,-1.73 4.17,-1.83 1.69,-0.09 3,0.83 3.84,-1.1 0.13,-0.31 0.24,-0.71 0.3,-1.12l0 -0.05c0.05,-0.37 0.05,-0.73 -0.02,-1.04 -0.77,-3.55 -6.33,-1.51 -8.43,-0.54 -3.29,1.54 -5.88,4.19 -9.05,5.95 -3.83,2.14 -7.81,4.02 -11.82,5.8 -8.63,3.81 -17.68,7.2 -27,8.9 -3.94,0.71 -8.36,1.3 -12.33,0.42 -5.19,-1.15 -4.01,-6.5 -2.22,-10.27 0.8,-1.69 5.92,-7.94 3.05,-10.29 -1.21,-0.99 -2.59,0.09 -3.62,0.76 -1.98,1.29 -4.02,2.47 -6.11,3.58 -4.27,2.25 -8.74,4.18 -13.28,5.82 -8.34,3 -17.98,5.81 -26.92,4.31 -5.12,-0.86 -7.61,-2.95 -8.75,-8.03 -0.96,-4.28 -1.54,-9.73 -6.86,-10.49 -4.33,-0.6 -9.31,2.93 -12.71,5.22 -4.31,2.9 -8.21,6.4 -11.95,10 1.01,-2.22 2.07,-4.41 3.15,-6.6 0.45,-0.92 0.83,-1.77 0.69,-2.84 -0,-0.1 -0,-0.21 -0,-0.32 -0,0.07 -0.01,0.14 -0.02,0.2 -0.13,-0.91 -0.43,-1.78 -1.47,-2 0.31,-0.09 -2.07,-0.84 -3.4,0.47 -0.91,0.3 -1.94,1.59 -2.7,2.16 -4.66,3.47 -10.16,5.94 -15.43,8.34 -6.17,2.79 -12.48,5.27 -18.97,7.2 -5.82,1.73 -11.93,3.29 -18.05,3.14 -2.25,-0.05 -5.76,-0.06 -7.05,-2.31 -0.23,-0.41 -0.39,-0.83 -0.5,-1.26 -0.01,-0.02 -0.01,-0.05 -0.02,-0.07 -0.72,-3.07 1.36,-6.76 2.72,-9.27 0.72,-1.34 1.62,-2.52 2.05,-3.85 0.03,-0.05 0.06,-0.09 0.09,-0.14 0.1,-0.14 0.09,-0.46 0.11,-0.63 0.01,0.07 0.02,0.14 0.02,0.21 0.01,-0.58 0.07,-1.15 -0.02,-1.72 -0.46,-2.87 -2.88,-2.19 -4.57,-0.86 -2.71,2.15 -5.36,4.28 -8.24,6.2 -11,7.31 -24.14,13.09 -37.36,14.58 -5.57,0.63 -11.98,0.47 -17.14,-1.98 -2.68,-1.27 -4.73,-3.48 -6.04,-6.11 -0.64,-1.3 -1.16,-2.67 -1.45,-4.09 -0.15,-0.77 -0.8,-3.68 -0.29,-4.3 0.24,-0.29 0.59,-0.51 1.07,-0.66 0.46,-0.45 1.58,-0.92 2.08,-1.22 1,-0.58 2,-1.17 3.01,-1.74 3.01,-1.73 5.94,-3.56 8.77,-5.57 5.32,-3.79 10.3,-8.03 14.98,-12.59 9.66,-9.39 18.61,-19.86 25.71,-31.34 3.13,-5.05 6.48,-10.73 7.4,-16.69 0.08,-0.51 0.13,-1.04 0.16,-1.57 0,0.02 0,0.03 0,0.05l0 -0.4c0,-0.13 0,-0.27 -0,-0.37 -0.01,-1.21 -0.18,-2.41 -0.7,-3.47 -4.84,-9.75 -19.83,2.03 -24.37,6.08 -9.8,8.75 -18.32,19.13 -25.41,30.16 -3.78,5.87 -7.19,12 -10.07,18.37 -1.26,2.79 -2.45,5.63 -3.47,8.51 -0.94,2.67 -1.68,5.38 -2.24,8.15 -0.62,0.37 -1.25,0.73 -1.87,1.09 -11.46,6.61 -23.37,12.87 -36.14,16.54 -3.89,1.13 -7.87,1.89 -11.89,2.41 -3.59,0.46 -7.22,0.72 -10.64,-0.66 -1.87,-0.75 -4.25,-2.45 -5.27,-3.94 -0.62,-0.96 -1.11,-2 -1.48,-3.1 -1.45,-4.63 -0.33,-12.55 2.52,-17.18 3.56,-5.78 9.79,-9.39 16.15,-10.92 2.23,-0.53 4.48,-0.6 6.74,-0.07 0.58,0.13 1.65,0.69 2.74,1.12 3.5,2.44 4.55,7.2 4.31,11.32 -0.16,2.84 4.24,2.83 4.4,0 0.32,-5.63 -1.87,-12.58 -6.84,-15.79 -2.51,-1.63 -5.22,-2.1 -8.16,-2.12 -10.01,-0.03 -20.12,6.79 -24.14,15.8 -2.56,5.73 -3.35,15.92 -0.88,21.63 4.98,11.5 19.1,9.83 29.08,7.6 7.81,-1.76 15.39,-4.66 22.63,-8.11 -0.01,0.06 -0,0.12 -0.01,0.18 6.17,-2.82 12.16,-6.03 18.07,-9.38 -0,0.17 -0,0.35 -0,0.52 -0.02,1.21 0.01,2.39 0.13,3.54 0.09,0.42 0.23,0.81 0.34,1.21 0.43,2.06 1.2,4.03 2.48,5.95 4.62,6.86 13.14,9 20.99,8.92 16.74,-0.16 33.44,-8.28 46.93,-17.68 -1.13,3.21 -2.05,6.77 -1.02,10.1 2.15,7.04 11.93,6.55 17.68,5.84 8.24,-1.01 16.37,-3.74 24.06,-6.8 7.79,-3.08 15.52,-6.7 22.62,-11.17 -1.51,3.52 -2.85,7.13 -4.19,10.72 -0.45,1.21 -0.88,2.73 -0.47,4.01 0.21,0.66 0.61,1.29 1.31,1.49 1.57,0.43 2.72,-1.4 3.55,-2.37 3.22,-3.8 6.77,-7.35 10.49,-10.65 3.87,-3.44 8.19,-7.16 13.03,-9.16 1.34,-0.54 3.56,-1.36 4.92,-0.45 1.58,1.04 1.79,3.86 2.18,5.5 1.02,4.3 2.22,8.49 6.24,10.85 4.17,2.46 9.58,2.76 14.29,2.44 12.1,-0.82 24.23,-5.54 34.93,-11.07 -1.04,2.79 -1.9,5.71 -1.66,8.71 0.57,7.23 8.12,8.49 14.07,8.29 7.24,-0.24 14.36,-2.31 21.18,-4.6 7.4,-2.49 14.58,-5.64 21.53,-9.2 -0.1,0.64 -0.15,1.29 -0.08,1.93 0.44,3.89 4,5.01 7.42,4.31 4.17,-0.85 7.73,-3.58 11.13,-5.99 3.6,-2.55 7.13,-5.21 10.62,-7.92 -1.46,2.2 -2.63,4.83 -3.81,6.99 -2.13,3.87 -4.18,7.79 -6.21,11.72 -2.06,3.99 -4.07,7.99 -6.06,12.01 -0.93,1.87 -1.85,3.76 -2.76,5.64 -0.69,1.44 -2.66,4.53 -2.66,5.78 0,-0.09 -0.05,-0.33 0,-0.41 -4.19,8.17 -7.39,16.98 -10.28,25.67 -1.68,5.05 -3.75,10.78 -3.42,16.26 -0.05,-1 0.03,-2.03 0.18,-3.06 -0.17,1.35 -0.2,2.52 -0.11,3.55 -0.01,-0.15 -0.06,-0.3 -0.06,-0.45 0.02,0.43 0.03,0.86 0.09,1.29 0.54,3.96 4.15,6.65 7.87,4.13 3.58,-2.43 4.51,-8.43 4.98,-12.35 0.67,-5.58 0.94,-11.22 1.44,-16.81 0.23,-2.54 0.43,-5.09 0.8,-7.6 0.31,-2.05 1.58,-5.06 1.58,-6.7 0,0.09 0.05,0.32 0,0.41 0.22,-0.46 0.66,-1.41 0.66,-1.58 0,0.08 0.05,0.35 0,0.41 3.06,-4.42 9.62,-6.49 14.29,-8.59 6.74,-3.03 13.58,-5.79 20.42,-8.58 13.24,-5.41 26.53,-11.44 38.03,-20.07 -0.02,0.25 -0.05,0.52 -0.07,0.77 -0.06,0.72 -0.09,1.44 -0,2.14 0.12,0.68 0.32,1.31 0.58,1.9 1.49,3.3 4.76,5.57 8.37,5.16 3.73,-0.41 7.28,-2.43 10.38,-4.43 1.66,-1.06 3.24,-2.24 4.85,-3.38 6.39,-4.54 12.2,-9.73 18.42,-14.48 -0.03,0.6 -0.06,1.21 -0.07,1.81 -0,0.23 0.01,0.44 0.01,0.66 0.02,2.15 0.23,4.3 0.87,6.38 2.07,6.77 8.53,9.43 15.18,9.58 13.73,0.3 27.64,-5.73 39.85,-11.46 -0.15,0.85 -0.25,1.69 -0.27,2.51 -0,0.12 -0.02,0.24 -0.02,0.37 0,1.71 0.25,3.12 0.77,4.21 0.03,0.07 0.08,0.13 0.12,0.2 0.5,1.19 1.22,2.32 2.25,3.36 5.77,5.8 15.44,6.07 23.1,5.63 18.58,-1.07 36.58,-8.25 52.02,-18.37 0.02,-0.02 0.02,-0.14 0.01,-0.27 0.56,-0.66 0.84,-1.33 0.88,-2.05 0,0.01 0.01,0.02 0.01,0.03l0 -0.81c-0.01,0.06 -0.03,0.12 -0.04,0.17z"/>
   <g>
    <path class="fil1" d="M27.02 51.32c2.19,0.09 5.66,0.06 8.25,0.06 7.47,-0 15.77,-0.78 21.82,2.72 3.8,2.2 5.97,4.61 8.05,8.47 4.01,7.43 3.88,19.53 0.01,26.88 -4.53,8.6 -11.4,11.14 -21.62,11.16 -3.15,0.01 -14.3,0.2 -16.46,0.02l-0.06 -49.31zm0.16 -1.42c-0.32,-1.14 -0.12,-9.64 -0.12,-11.53 -0,-3.01 -0.15,-32.87 0.07,-34.38 1.59,-0.03 5.67,-0.06 7.52,-0.07 8.63,-0.02 12.73,-0.54 19.76,4.09 9.79,6.45 10.63,24.55 4.31,33.56 -1.05,1.49 -3.13,3.52 -4.58,4.61 -3.49,2.61 -7.6,3.61 -12.31,3.66 -2.51,0.02 -12.92,0.27 -14.65,0.07zm-27.03 -45.98c4.86,0.38 8.88,-0.38 11.85,3.79 2.46,3.44 2.02,8.99 2.01,13.51 -0.02,10.39 0.02,20.78 0,31.17 -0.02,10.38 -0.05,20.79 0.04,31.17 0.06,6.77 0.65,14.73 -6.83,16.52 -2.57,0.62 -5.03,0.57 -7.23,0.59l0.05 1.31c1.96,0.25 17.55,0.08 20.89,0.07 6.91,-0.02 13.82,-0.04 20.73,-0.02 6.68,0.02 12.83,-0.02 19.28,-1.68 5.7,-1.47 10.37,-3.72 14.09,-6.64 3.87,-3.02 7.19,-7.87 8.14,-12.75 1.14,-5.84 0.25,-12.52 -2.67,-16.91 -3.26,-4.9 -6.16,-6.63 -11.14,-9.61 -4.03,-1.88 -7.47,-2.87 -11.89,-3.7 -1.22,-0.3 -3.75,-0.49 -4.46,-0.73 5.92,-1.52 9.25,-2.26 14.35,-5.45 7.54,-4.72 11.73,-13.25 9.72,-22.13 -1.1,-4.87 -3.49,-8.12 -7.05,-11.22 -7.04,-6.14 -17.08,-8.34 -25.57,-8.63 -11.21,-0.22 -22.75,0.17 -33.95,-0l-8.44 -0.04c-1.57,-0.02 -2.13,-0.41 -1.92,1.36z"/>
    <path class="fil1" d="M103.61 66.14c-0.41,-0.93 0.83,-5.67 1.21,-6.93 1.02,-3.43 1.9,-5.35 4.05,-7.83 5.01,-5.22 16.29,-6.02 20.44,0.99 2.41,4.06 3.38,9.25 2.82,13.65 -1.31,0.07 -5.54,0.04 -7.17,0.05l-21.35 0.06zm39.29 2.12c1.21,-2.16 -0.21,-8.25 -1.13,-10.56 -2.52,-6.35 -8.23,-10.97 -15.13,-12.46 -3.24,-0.7 -6.67,-0.83 -9.9,-0.55 -4.89,0.42 -9.3,2.17 -13,4.7 -6.94,4.75 -11.29,12.9 -12.02,20.92 -1.15,12.74 5.53,26.97 19.27,30.68 7.39,1.99 15.32,1.41 21.29,-2.06 4.03,-2.34 7.19,-5.65 9.48,-9.58 0.52,-0.9 2.16,-3.11 0.82,-3.65 -0.75,-0.31 -0.95,-0.09 -1.41,0.44 -6.93,7.79 -14.88,12.32 -25.99,7.29 -3.51,-1.59 -7.68,-6.13 -9.22,-9.52 -2.13,-4.68 -3.05,-10.27 -2.68,-15.53 6.46,0.1 13.21,-0.01 19.73,-0.02 2.49,-0 18.9,0.14 19.88,-0.1z"/>
    <path class="fil2" d="M165.91 83.72c3.16,0 5.9,1.84 7.19,4.51l-14.38 0c1.29,-2.67 4.03,-4.51 7.19,-4.51zm7.97 7.58c0.01,0.13 0.01,0.27 0.01,0.4 0,4.41 -3.57,7.98 -7.98,7.98 -4.41,0 -7.98,-3.57 -7.98,-7.98 0,-0.13 0,-0.27 0.01,-0.4l15.95 0z"/>
   </g>
  </g>
 </g>
</svg>
